<svg width="375" height="378" viewBox="0 0 375 378" fill="none" xmlns="http://www.w3.org/2000/svg">
<g clip-path="url(#clip0_28_17)">
<path d="M423 0H-49V378H423V0Z" fill="white"/>
<path fill-rule="evenodd" clip-rule="evenodd" d="M307.832 120.682C328.273 120.682 344.843 104.095 344.843 83.6325C344.843 63.1704 328.273 46.5825 307.832 46.5825C287.391 46.5825 270.821 63.1704 270.821 83.6325C270.821 104.095 287.391 120.682 307.832 120.682ZM307.832 122.535C329.295 122.535 346.693 105.118 346.693 83.6325C346.693 62.1473 329.295 44.73 307.832 44.73C286.369 44.73 268.971 62.1473 268.971 83.6325C268.971 105.118 286.369 122.535 307.832 122.535Z" fill="#67C5C7"/>
<path fill-rule="evenodd" clip-rule="evenodd" d="M307.832 104.01C319.075 104.01 328.188 94.8866 328.188 83.6323C328.188 72.3783 319.075 63.255 307.832 63.255C296.589 63.255 287.476 72.3783 287.476 83.6323C287.476 94.8866 296.589 104.01 307.832 104.01ZM307.832 108.641C321.63 108.641 332.813 97.4444 332.813 83.6323C332.813 69.8205 321.63 58.6235 307.832 58.6235C294.034 58.6235 282.851 69.8205 282.851 83.6323C282.851 97.4444 294.034 108.641 307.832 108.641Z" fill="#E2E0E5"/>
<path fill-rule="evenodd" clip-rule="evenodd" d="M307.832 67.2879C309.975 67.2879 312.099 67.7106 314.081 68.5321C316.061 69.3536 317.86 70.5576 319.377 72.0752C320.894 73.5929 322.096 75.3947 322.917 77.378C323.738 79.3609 324.16 81.4862 324.16 83.6326H337.442C337.442 79.7405 336.674 75.8861 335.186 72.2901C334.692 71.0921 334.119 69.9307 333.474 68.8128C332.184 66.5744 330.601 64.5096 328.77 62.6741C326.935 60.8386 324.871 59.256 322.637 57.9639C321.52 57.3181 320.359 56.7451 319.163 56.249C315.57 54.7594 311.721 53.9927 307.832 53.9927V67.2879Z" fill="#4CA6A8"/>
<path d="M153.974 361.904V359.248H161.926V361.904H153.974Z" fill="#444444"/>
<path d="M235.348 362.02V359.481H243.186V362.02H235.348Z" fill="#3F3F3F"/>
<path d="M244.569 359.941H152.821L154.666 355.903L197.658 350.595L242.379 355.786L244.569 359.941Z" fill="#656565"/>
<path d="M197.658 350.595L242.379 355.786L243.474 357.865L197.658 353.018L153.743 357.922L154.666 355.903L197.658 350.595Z" fill="#969696"/>
<path d="M194.662 351.172V333.289L202.499 332.25V351.172L198.465 359.481L194.662 351.172Z" fill="#A1A1A1"/>
<path d="M198.465 359.478L198.58 332.769L200.54 332.508L200.482 355.326L198.465 359.478Z" fill="#CBCBCB"/>
<path d="M194.662 351.171V333.289L196.16 333.09V354.444L194.662 351.171Z" fill="#636363"/>
<path d="M202.499 332.25V351.172L200.54 355.207V332.508L202.499 332.25Z" fill="#636363"/>
<path d="M188.507 323.836C179.922 313.48 168.121 304.42 163.294 301.184L236.347 291.088C231.563 296.352 221.555 307.422 219.797 309.597C217.599 312.315 210.1 322.412 205.962 327.458C203.988 329.868 201.978 331.748 200.402 333.043L196.316 332.895C194.654 330.933 191.99 327.82 188.507 323.836Z" fill="#86B63E"/>
<path d="M191.869 331.471H204.281V333.286H191.869V331.471Z" fill="#DFD4C0"/>
<path d="M204.281 331.471H191.869C191.869 331.471 193.033 330.825 198.075 330.955C203.118 331.084 204.281 331.471 204.281 331.471Z" fill="#DDE7E9"/>
<path d="M190.835 168.255C208.031 156.995 227.943 150.393 236.606 152.465C257.552 157.472 275.264 185.341 278.757 197.378C282.215 209.3 268.93 237.852 261.013 254.872L260.784 255.365C252.897 272.32 236.864 308.691 191.481 306.103C146.098 303.514 134.203 291.865 123.988 282.675C113.774 273.485 104.723 233.49 103.171 228.572C101.62 223.653 96.1896 207.992 103.171 207.345C110.154 206.697 125.669 202.944 146.227 196.213C166.785 189.483 173.638 179.516 190.835 168.255Z" fill="#89C63D"/>
<path d="M103.171 207.344C110.154 206.697 125.669 202.944 146.227 196.213C148.2 195.568 150.046 194.892 151.787 194.188C162.432 195.338 187.964 203.151 204.928 225.207C221.892 247.263 225.012 263.39 224.452 268.697C218.159 279.353 189.257 297.067 123.988 282.675C113.774 273.485 104.723 233.49 103.171 228.572C101.62 223.653 96.1896 207.991 103.171 207.344Z" fill="#7EB938"/>
<path d="M128.384 260.414C126.626 261.035 126.876 262.14 127.221 262.614C139.418 267.274 164.639 276.8 167.949 277.628C172.087 278.664 202.342 279.829 210.876 275.946C217.702 272.839 225.357 259.896 228.331 253.813C217.944 252.95 192.722 251.639 174.931 253.295C152.692 255.366 130.583 259.638 128.384 260.414Z" fill="#ADE550"/>
<path d="M127.737 261.449C123.807 261.553 122.824 266.583 122.824 269.086C122.824 278.017 158.639 288.631 170.276 290.442C181.912 292.255 202.729 284.618 203.376 276.205C204.022 267.791 132.65 261.32 127.737 261.449Z" fill="#65942C"/>
<path d="M127.279 264.079C126.593 260.829 132.078 261.349 134.958 261.349C154.797 261.999 196.229 263.403 203.25 263.819C210.271 264.235 216.689 265.466 219.021 266.029C217.878 271.489 209.558 282.564 185.423 283.188C155.254 283.968 148.534 281.238 139.21 277.988C129.884 274.739 127.964 267.329 127.279 264.079Z" fill="#D5FF81"/>
<path d="M259.695 209.567C254.523 210.473 252.325 213.177 251.42 214.471C251.162 217.793 251.42 223.325 254.523 218.872C258.402 213.306 269.059 210.71 275.393 207.474C281.73 204.239 279.144 197.12 277.206 190.907C275.264 184.694 266.601 172.527 259.361 165.668C252.917 159.562 244.104 154.277 238.932 153.112C246.69 156.607 255.068 163.266 262.464 172.527C269.952 181.903 276.041 193.38 275.393 199.463C274.748 205.547 264.867 208.66 259.695 209.567Z" fill="#7CAF49"/>
<path d="M240.54 231.676C244.807 223.651 249.461 216.143 252.565 213.167C255.15 210.15 257.478 212.649 256.314 217.956C255.151 223.262 245.971 245.007 233.3 264.552C220.629 284.096 195.36 296.653 176.612 297.689C157.864 298.725 135.625 296.524 121.402 280.474C107.18 264.424 98.5168 227.148 96.9652 218.864C95.4135 210.58 98.5168 206.956 104.594 206.438C110.67 205.92 132.91 200.776 147.778 194.789C162.648 188.802 170.535 182.752 180.491 175.763C165.622 189.353 150.928 195.937 129.419 202.685C119.154 205.904 103.171 208.121 102.525 208.639C101.878 209.156 101.361 211.357 102.266 214.463C106.016 229.866 116.101 254.199 119.592 261.059C123.083 267.919 137.564 288.887 172.862 285.652C208.16 282.416 216.62 271.541 221.016 265.587C225.412 259.633 236.273 239.7 240.54 231.676Z" fill="#C1F564"/>
<path d="M70.252 352.872C74.1019 352.595 78.8654 351.074 80.7656 350.349C81.7867 350.069 87.879 351.212 90.1521 351.849C92.425 352.488 97.5937 353.559 98.3489 354.904C99.7973 357.273 98.7076 363.5 97.9817 366.317C96.8674 366.257 93.8441 365.872 90.666 364.83C86.6933 363.529 82.35 362.877 79.5803 362.666C76.8106 362.455 71.8442 362.004 67.3473 360.552C62.8501 359.103 58.5212 356.378 59.536 354.775C60.5505 353.172 65.4398 353.222 70.252 352.872Z" fill="#F09020"/>
<path d="M97.8907 354.429L104.909 345.709L88.7956 338.171L80.8638 350.327C82.0891 352.283 84.8352 354.136 88.2971 355.106C92.2254 356.208 95.9546 355.865 97.8907 354.429Z" fill="#FED3CA"/>
<path d="M104.909 345.709L97.8907 354.429C95.9546 355.865 92.2254 356.208 88.2971 355.106C84.8352 354.136 82.0891 352.283 80.8638 350.33C84.6782 352.702 93.1782 356.353 96.6648 351.99C100.151 347.628 101.628 344.963 101.931 344.175L104.909 345.709Z" fill="#FDB3A3"/>
<path d="M97.7482 354.328C95.7809 355.692 92.1222 356 88.2723 354.92C84.9132 353.978 82.2282 352.208 80.9522 350.318C80.9207 350.321 80.8911 350.324 80.8638 350.327C82.0891 352.283 84.8355 354.132 88.2971 355.106C92.2255 356.208 95.9546 355.862 97.891 354.429C97.8457 354.394 97.7982 354.359 97.7482 354.328Z" fill="#060A42"/>
<path d="M59.5365 354.772C60.5513 353.169 65.4403 353.219 70.2528 352.872C70.8333 352.592 72.182 352.583 72.9312 354.756C73.8677 357.471 65.6203 357.295 71.0366 361.522C69.8078 361.261 68.5605 360.943 67.3478 360.552C62.8506 359.1 58.5217 356.375 59.5365 354.772Z" fill="#DF780D"/>
<path d="M67.347 360.552C62.8497 359.103 58.5209 356.378 59.5357 354.775C59.0901 355.468 58.44 357.071 59.4022 357.947C60.6049 359.04 63.2336 361.097 66.9058 362.127C70.5776 363.157 77.2435 364.272 79.1388 364.241C81.0343 364.206 84.1048 364.688 85.979 365.403L85.4891 367.154L96.3296 370.197C96.8542 370.342 97.0779 370.216 97.4209 368.991C97.6956 368.011 97.909 366.802 97.9813 366.317C96.8671 366.257 93.8438 365.872 90.6656 364.83C86.693 363.526 82.3496 362.874 79.5799 362.663C76.8102 362.451 71.8439 362.004 67.347 360.552Z" fill="#791223"/>
<path fill-rule="evenodd" clip-rule="evenodd" d="M81.4528 351.089C81.5114 351.288 81.3984 351.496 81.2005 351.556L74.0025 353.688C73.8046 353.748 73.5966 353.635 73.538 353.436C73.4792 353.238 73.5922 353.03 73.7901 352.97L80.9881 350.837C81.186 350.777 81.394 350.891 81.4528 351.089Z" fill="#060A42"/>
<path fill-rule="evenodd" clip-rule="evenodd" d="M75.3401 354.942C75.1242 353.172 73.7221 352.473 73.0569 352.343C72.9556 352.325 72.8892 352.227 72.9087 352.123C72.9282 352.022 73.0264 351.956 73.1277 351.975C73.8939 352.123 75.4691 352.914 75.7111 354.895C75.7237 354.999 75.6507 355.093 75.5481 355.106C75.4458 355.119 75.3527 355.043 75.3401 354.942Z" fill="#1F0050"/>
<path fill-rule="evenodd" clip-rule="evenodd" d="M77.9545 354.363C77.7387 352.592 76.3368 351.89 75.6716 351.764C75.5703 351.745 75.5039 351.644 75.5234 351.543C75.5429 351.443 75.6408 351.376 75.7421 351.395C76.5083 351.543 78.0839 352.334 78.3258 354.315C78.3381 354.419 78.2654 354.511 78.1628 354.523C78.0602 354.536 77.9671 354.463 77.9545 354.363Z" fill="#1F0050"/>
<path fill-rule="evenodd" clip-rule="evenodd" d="M80.794 353.647C80.5781 351.877 79.1763 351.177 78.5107 351.048C78.4094 351.029 78.343 350.932 78.3625 350.831C78.382 350.727 78.4802 350.661 78.5815 350.683C79.3478 350.828 80.923 351.619 81.165 353.603C81.1775 353.704 81.1045 353.798 81.002 353.811C80.8997 353.824 80.8065 353.751 80.794 353.647Z" fill="#1F0050"/>
<path d="M99.0434 359.459C98.937 361.954 98.3993 364.697 97.982 366.317C96.8675 366.257 93.8442 365.872 90.666 364.83C90.0515 364.628 89.4278 364.439 88.8022 364.269C89.6245 362.874 90.9577 361.579 92.6771 360.634C94.8454 359.443 97.1601 359.075 99.0434 359.459Z" fill="#DF780D"/>
<path d="M236.852 226.197C199.082 215.473 181.893 222.549 154.575 224.143C146.552 224.611 140.621 224.957 138.672 224.867C130.087 224.47 121.268 234.612 113.709 246.023C109.505 252.371 105.967 266.81 101.558 278.151C92.6207 301.145 82.2754 338.31 82.2754 338.31L106.71 350.075C106.71 350.075 125.068 311.47 136.162 293.092C141.443 284.344 144.329 279.748 150.779 271.824C159.385 261.251 171.393 261.908 181.467 262.555C223.959 265.281 233.648 254.009 236.852 226.197Z" fill="#025780"/>
<path opacity="0.2" d="M136.162 293.093C141.443 284.345 144.329 279.749 150.779 271.825C159.385 261.252 171.393 261.909 181.467 262.555C223.959 265.282 233.647 254.01 236.851 226.198C231.152 224.58 225.921 223.367 221.053 222.479C223.717 225.173 227.663 232.961 222.143 242.559C215.242 254.557 193.997 253.648 169.664 253.648C145.331 253.648 125.155 285.76 101.558 347.596L106.709 350.079C106.709 350.079 125.068 311.47 136.162 293.093Z" fill="#003F58"/>
<path opacity="0.3" d="M112.501 284.969C126.152 248.437 139.307 231.103 168.499 231.102C211.066 231.101 168.938 224.38 137.494 225.985C120.643 226.844 115.473 246.463 108.358 265.653C103.861 277.783 92.3442 322.012 90.5528 331.443C88.6236 341.602 98.8355 321.539 112.501 284.969Z" fill="#04709F"/>
<path d="M151.746 307.838L165.277 324.409L179.336 317.155L168.842 300.001L151.746 307.838Z" fill="#FED3CA"/>
<path d="M179.337 317.155L168.843 300.001L165.67 301.456C166.82 302.728 169.955 306.545 173.296 311.635C176.638 316.726 166.446 318.723 160.932 319.089L165.278 324.409L179.337 317.155Z" fill="#FDB3A3"/>
<path d="M176.701 312.976C180.874 313.855 183.915 321.218 184.341 322.872C180.666 322.872 176.352 323.672 172.517 326.069C168.683 328.469 164.689 328.788 160.375 330.07C156.061 331.349 144.237 333.267 142.161 333.267C140.499 333.267 138.141 334.228 137.17 334.707C137.331 333.179 139.721 331.068 144.409 329.027C150.289 326.469 154.953 324.192 161.104 319.353C166.156 320.891 175.382 319.133 176.701 312.976Z" fill="#F09020"/>
<path fill-rule="evenodd" clip-rule="evenodd" d="M155.884 323.007C155.93 322.916 156.042 322.878 156.135 322.925C156.144 322.928 156.154 322.935 156.163 322.938C156.356 323.035 156.491 323.102 156.596 323.206C156.7 323.313 156.768 323.448 156.866 323.643C156.87 323.653 156.874 323.662 156.878 323.669C156.924 323.763 156.886 323.873 156.794 323.921C156.702 323.968 156.589 323.93 156.543 323.836C156.428 323.606 156.387 323.527 156.331 323.47C156.275 323.417 156.199 323.376 155.967 323.259C155.875 323.212 155.838 323.102 155.884 323.007Z" fill="#1F0050"/>
<path fill-rule="evenodd" clip-rule="evenodd" d="M158.217 321.467C158.263 321.376 158.375 321.338 158.467 321.385C158.477 321.388 158.486 321.395 158.496 321.398C158.689 321.495 158.824 321.562 158.928 321.665C159.033 321.773 159.101 321.908 159.198 322.103C159.202 322.113 159.206 322.122 159.21 322.129C159.257 322.223 159.219 322.333 159.126 322.381C159.034 322.425 158.922 322.39 158.876 322.295C158.76 322.062 158.719 321.987 158.664 321.93C158.608 321.877 158.531 321.836 158.3 321.719C158.208 321.672 158.17 321.562 158.217 321.467Z" fill="#1F0050"/>
<path fill-rule="evenodd" clip-rule="evenodd" d="M160.371 319.914C160.417 319.819 160.53 319.782 160.622 319.829C160.631 319.832 160.641 319.838 160.65 319.842C160.843 319.939 160.979 320.008 161.082 320.112C161.187 320.216 161.255 320.352 161.353 320.55C161.357 320.557 161.361 320.566 161.365 320.572C161.411 320.667 161.373 320.777 161.281 320.824C161.188 320.872 161.076 320.834 161.03 320.739C160.915 320.509 160.874 320.431 160.818 320.377C160.762 320.32 160.686 320.279 160.455 320.163C160.362 320.119 160.325 320.005 160.371 319.914Z" fill="#1F0050"/>
<path fill-rule="evenodd" clip-rule="evenodd" d="M161.477 319.905C161.536 319.99 161.515 320.106 161.43 320.163L156.377 323.685C156.293 323.741 156.176 323.723 156.117 323.638C156.058 323.553 156.079 323.436 156.164 323.376L161.216 319.858C161.301 319.798 161.418 319.82 161.477 319.905Z" fill="#060A42"/>
<path d="M181.752 317.356C183.186 319.596 184.119 322.009 184.341 322.872C182.395 322.872 180.271 323.096 178.133 323.663C178.261 322.529 178.64 321.338 179.283 320.201C179.949 319.023 180.81 318.056 181.752 317.356Z" fill="#DF780D"/>
<path d="M137.17 334.706C137.331 333.179 139.721 331.068 144.409 329.03C145.94 328.362 147.388 327.717 148.803 327.036C150.926 326.025 154.953 324.611 154.075 327.036C152.976 330.07 156.789 330.993 160.375 330.07C156.061 331.349 144.237 333.267 142.161 333.267C140.499 333.267 138.141 334.228 137.17 334.706Z" fill="#DF780D"/>
<path d="M161.104 319.353C166.156 320.891 175.382 319.133 176.7 312.976C176.848 313.007 176.995 313.046 177.139 313.093C174.064 321.552 163.081 320.673 160.884 319.523C160.957 319.467 161.03 319.41 161.104 319.353Z" fill="#060A42"/>
<path d="M138.805 337.586C137.648 336.486 137.077 335.573 137.169 334.707C138.14 334.228 140.498 333.267 142.16 333.267C144.237 333.267 156.06 331.349 160.374 330.067C164.688 328.788 168.682 328.47 172.517 326.069C176.352 323.669 180.665 322.872 184.34 322.872C185.565 326.069 185.139 332.565 173.635 332.946C172.038 332.946 169.961 333.585 168.043 335.185C165.167 337.586 147.433 343.183 138.805 337.586Z" fill="#791223"/>
<path fill-rule="evenodd" clip-rule="evenodd" d="M174.115 328.148C173.309 329.449 174.274 332.278 174.274 332.278C178.534 332.038 181.032 330.907 182.44 329.547C183.731 328.299 184.175 326.794 184.17 325.407C181.691 325.357 179.232 325.908 177.348 326.608C176.334 326.986 174.843 326.973 174.115 328.148Z" fill="white"/>
<path d="M196.902 225.133C196.902 225.133 196.901 225.133 196.901 225.133H138.612C123.802 225.133 140.445 250.96 149.238 262.555C160.997 278.061 176.842 303.803 176.842 303.803L149.238 314.544C149.238 314.544 123.437 282.097 106.71 261.227C85.0436 234.197 97.5963 217.2 113.049 212.573C125.41 208.871 192.841 222.619 196.901 225.133H196.902V225.133Z" fill="#025780"/>
<path opacity="0.3" d="M114.279 245.831C103.384 228.38 110.285 221.291 131.711 216.019C97.3914 216.019 98.8442 236.742 106.108 248.558C113.371 260.374 136.251 286.005 148.236 298.002C160.221 310 156.153 304.434 146.057 291.276C136.433 278.733 125.174 263.282 114.279 245.831Z" fill="#04709F"/>
<path d="M200.172 155.848C205.093 154.952 205.801 190.932 205.801 190.932C205.801 190.932 208.776 211.837 195.814 207.111C180.77 201.625 156.954 164.937 156.954 164.937L168.757 157.666C171.699 163.482 191.851 184.697 191.274 180.753C190.185 173.3 190.185 157.666 200.172 155.848Z" fill="#67C5C7"/>
<path d="M156.953 164.937L168.756 157.667C163.853 151.485 156.59 148.033 154.048 149.85C151.506 151.668 154.048 159.847 156.953 164.937Z" fill="#FED3CA"/>
<path d="M154.048 149.85C151.506 151.668 154.048 159.847 156.953 164.937C155.319 160.756 153.849 151.741 155.319 150.94C157.316 149.85 161.675 151.291 168.03 158.114L168.756 157.667C163.853 151.485 156.59 148.033 154.048 149.85Z" fill="#FDB3A3"/>
<path d="M162.377 152.655C162.521 150.601 159.852 150.129 158.498 150.149L157.967 152.346C158.807 152.184 160.436 152.11 160.24 153.103C160.045 154.096 158.448 154.613 157.673 154.748L156.584 156.842C159.163 156.363 162.198 155.223 162.377 152.655Z" fill="#EDDEBF"/>
<path d="M157.673 154.749L156.584 156.843C157.445 156.683 158.356 156.45 159.195 156.115C158.685 156.142 157.668 155.907 157.673 154.749Z" fill="#C8B493"/>
<path d="M157.968 152.347C158.806 152.186 160.435 152.111 160.24 153.105C160.165 153.488 159.88 153.801 159.514 154.048C160.83 153.656 160.966 153.061 160.883 152.458C160.799 151.854 159.948 151.448 159.543 151.388C159.139 151.328 159.054 151.196 158.919 150.872C158.812 150.613 158.845 150.287 158.875 150.157C158.742 150.151 158.615 150.149 158.498 150.151L157.968 152.347Z" fill="#C8B493"/>
<path d="M153.577 160.082C157.929 157.665 158.647 152.52 158.708 149.409L157.832 149.348C157.832 149.348 157.353 151.705 148.439 151.08C139.931 150.482 139.816 148.083 139.816 148.083L138.941 148.021C137.85 154.711 141.26 158.176 142.276 159.124C142.906 160.086 145.16 160.918 147.893 161.11C150.46 161.29 152.688 160.852 153.577 160.082Z" fill="#EDDEBF"/>
<path d="M146.735 160.588C144.682 158.933 143.974 154.688 143.744 152.575C143.161 152.377 140.803 151.487 139.529 150.832C139.455 151.896 139.846 154.976 141.329 156.999C142.827 159.044 145.513 160.387 146.735 160.588Z" fill="#F5EAD4"/>
<path d="M146.789 148.604C146.013 148.197 146.873 147.708 147.399 147.514C145.002 147.188 140.553 147.883 141.436 148.732C142.32 149.58 145.013 150.178 145.884 150.302C146.755 150.427 148.013 150.42 148.236 149.933C148.458 149.445 147.759 149.113 146.789 148.604Z" fill="#C4986B"/>
<path d="M158.71 149.378C158.595 151.02 154.077 152.042 148.618 151.658C143.16 151.275 138.828 149.633 138.943 147.99C139.075 146.111 143.576 145.326 149.035 145.709C154.493 146.092 158.852 147.342 158.71 149.378Z" fill="#956229"/>
<path d="M149.035 145.709C143.576 145.326 139.075 146.111 138.943 147.99C138.86 149.178 141.103 150.366 144.415 151.078C142.837 150.58 139.701 149.276 139.787 148.049C139.895 146.515 145.523 146.029 148.995 146.273C152.467 146.517 157.979 147.69 157.865 149.318C157.774 150.621 154.112 151.452 152.292 151.704C155.97 151.523 158.622 150.631 158.71 149.378C158.852 147.342 154.493 146.092 149.035 145.709Z" fill="#FCFEFB"/>
<path d="M148.995 146.273C145.523 146.029 139.895 146.515 139.787 148.049C139.777 148.198 139.814 148.347 139.889 148.496C140.14 147.769 142.304 146.432 148.951 146.899C155.599 147.365 157.568 148.972 157.722 149.717C157.806 149.589 157.856 149.456 157.865 149.318C157.979 147.69 152.467 146.516 148.995 146.273Z" fill="#B3865C"/>
<path d="M146.977 133.149C145.997 138.838 148.225 146.251 149.461 149.246C144.081 140.479 144.771 133.443 146.297 127.329C147.823 121.217 148.492 114.812 148.56 106.411C149.853 115.975 148.202 126.037 146.977 133.149Z" fill="#FEFFFE"/>
<path d="M149.534 136.399C149.196 133.801 150.583 130.934 151.319 129.826C148.246 132.81 148.392 135.946 149.002 138.808C149.611 141.669 149.766 144.53 149.545 148.162C150.511 144.23 149.956 139.647 149.534 136.399Z" fill="#FEFFFE"/>
<path d="M195.814 207.111C180.77 201.626 156.954 164.937 156.954 164.937L159.859 163.147C165.67 171.621 179.144 190.205 186.553 196.749C195.814 204.929 203.077 203.111 205.801 190.932C205.801 190.932 208.776 211.837 195.814 207.111Z" fill="#4CA6A8"/>
<path d="M191.274 180.752C190.184 173.299 190.184 157.666 200.172 155.848C194.361 158.21 191.637 169.845 192.727 179.116C193.816 188.387 188.732 184.933 181.65 178.207C175.984 172.826 169.241 163.166 166.578 159.008L168.757 157.666C171.699 163.482 191.851 184.697 191.274 180.752Z" fill="#4CA6A8"/>
<path d="M267.36 161.849C268.631 156.941 260.166 153.079 252.21 151.481C240.231 149.076 228.757 148.583 214.411 151.482C207.982 152.781 202.555 154.312 198.576 156.249C194.597 158.187 194.267 165.049 196.25 173.866C198 181.651 198.1 190.665 197.144 194.992C195.066 204.388 187.279 220.576 187.279 220.576L236.73 226.927C236.73 226.927 252.211 195.944 256.205 187.387C261.799 175.401 272.784 168.14 267.36 161.849Z" fill="#4CA6A8"/>
<path opacity="0.45" d="M199.115 222.097C206.128 220.011 216.791 217.426 219.601 210.931C225.23 197.919 224.423 196.081 217.523 173.867C214.236 163.288 212.69 166.395 209.947 175.371C207.281 184.097 204.453 168.404 202.895 163.305C199.386 151.818 195.362 163.851 195.631 168.394C195.74 170.229 195.74 171.484 196.082 173.099C196.136 173.354 196.192 173.61 196.25 173.867C198.001 181.652 198.1 190.666 197.144 194.993C195.066 204.39 187.279 220.577 187.279 220.577L199.115 222.097Z" fill="#62B5B7"/>
<path d="M256.205 187.387C261.799 175.401 272.058 168.14 266.633 161.849C258.429 150.255 250.091 157.658 233.099 181.44C230.933 191.583 233.947 201.296 226.501 207.658C214.043 218.305 203.484 217.566 188.887 217.111C187.922 219.239 187.279 220.576 187.279 220.576L236.73 226.927C236.73 226.927 252.211 195.944 256.205 187.387Z" fill="url(#paint0_linear_28_17)"/>
<path d="M191.284 211.656C189.139 216.708 187.279 220.575 187.279 220.575C192.968 220.995 207.326 221.909 219.238 222.2C234.128 222.563 207.435 213.474 191.284 211.656Z" fill="#B8A6E9"/>
<path d="M244.678 199.424C246.675 198.564 248.026 196.672 248.235 194.506C249.345 183.073 253.691 148.158 264.817 156.396C273.716 162.985 271.095 180.937 269.537 188.571C267.759 197.297 264.816 207.867 259.006 211.839C243.204 222.64 216.151 224.927 216.151 224.927L214.154 212.566L244.678 199.424Z" fill="#67C5C7"/>
<path d="M216.152 224.926L214.154 212.565C208.706 215.111 202.169 219.836 200.353 221.837C196.272 226.333 208.888 225.866 216.152 224.926Z" fill="#FED3CA"/>
<path d="M200.354 221.837C202.169 219.836 208.706 215.111 214.154 212.565C211.067 214.989 204.566 220.238 203.259 221.837C201.625 223.835 209.659 224.627 215.902 224.958C208.603 225.876 196.318 226.282 200.354 221.837Z" fill="#FDB3A3"/>
<path d="M259.006 211.839C243.204 222.64 216.151 224.927 216.151 224.927L215.74 222.382C224.654 220.928 244.334 216.929 251.742 212.566C261.003 207.112 263.727 198.387 266.088 187.117C268.448 175.846 267.721 164.032 264.817 156.396C273.716 162.985 271.095 180.937 269.537 188.572C267.759 197.297 264.816 207.867 259.006 211.839Z" fill="#4CA6A8"/>
<path d="M134.413 219.748L128.282 173.656L189.876 175.769L195.798 221.854L134.413 219.748Z" fill="#16468F"/>
<path d="M134.413 219.748L128.282 173.656L195.798 221.854L134.413 219.748Z" fill="#134EAA"/>
<path d="M189.876 175.77L195.798 221.854L198.503 221.947L192.014 174.174L130.212 172.054L128.282 173.656L189.876 175.77Z" fill="#134EAA"/>
<path d="M135.065 218.937C133.801 218.894 132.741 219.884 132.698 221.15C132.655 222.415 133.644 223.476 134.908 223.52L233.543 226.904C234.807 226.947 235.866 225.956 235.91 224.691C235.953 223.425 234.964 222.364 233.699 222.321L135.065 218.937Z" fill="#16468F"/>
<path d="M196.244 221.036C194.979 220.993 193.92 221.984 193.876 223.249C193.833 224.515 194.823 225.575 196.087 225.619L233.543 226.904C234.807 226.947 235.867 225.957 235.91 224.691C235.953 223.426 234.964 222.365 233.699 222.321L196.244 221.036Z" fill="#134EAA"/>
<path d="M165.345 196.624C165.223 200.182 162.363 202.971 158.957 202.855C155.552 202.738 152.89 199.759 153.011 196.201C153.133 192.644 155.993 189.854 159.398 189.971C162.804 190.088 165.467 193.067 165.345 196.624Z" fill="#FFFFFE"/>
<path d="M242.662 130.217L244.841 144.448C244.841 144.448 252.943 128.27 251.378 119.128C250.289 112.766 247.259 110.752 241.572 108.582C235.885 106.412 228.094 107.634 225.481 111.355C223.391 114.33 223.05 120.281 223.05 122.761C224.126 120.54 226.465 115.726 227.941 115.23C229.785 114.61 242.662 130.217 242.662 130.217Z" fill="#982119"/>
<path d="M245.078 150.231C244.54 145.478 245.568 134.99 246.184 132.55C243.1 131.415 233.399 138.278 228.935 141.851C228.84 142.101 228.435 147.602 227.719 149.487C226.825 151.841 226.087 155.156 229.745 156.394C233.403 157.632 238.988 154.343 245.078 150.231Z" fill="#FEB187"/>
<path d="M228.935 141.851C228.84 142.101 228.436 147.603 227.72 149.487C235.377 147.554 242.834 139.87 245.605 136.269C245.801 134.59 246.01 133.244 246.185 132.55C243.101 131.415 233.4 138.278 228.935 141.851Z" fill="#E49E7A"/>
<path d="M229.917 144.694C239.3 141.972 242.376 137.262 243.242 135.135C243.666 136.2 244.907 136.426 246.605 135.714C248.302 135.001 251.163 131.297 250.762 127.871C250.36 124.444 246.78 126.41 245.98 127.963C245.18 129.517 242.537 130.677 242.522 128.424C242.51 126.447 243.636 122.053 244.474 118.602C244.643 117.906 244.082 117.285 243.35 117.308C238.285 117.472 232.45 115.144 227.973 113.297C226.676 112.762 225.089 113.287 224.503 114.583C219.689 125.242 222.104 136.062 224.558 140.719C227.19 145.712 228.294 145.19 229.917 144.694Z" fill="#FEB187"/>
<path d="M247.565 121.545C254.102 115.546 247.384 108.639 242.481 107.366C237.252 106.009 231.732 107.888 228.317 108.093C220.709 108.55 217.603 107.184 214.879 103.912C217.058 108.093 219.419 110.638 225.593 112.274C220.408 112.213 215.606 108.093 211.792 103.005C215.243 123.727 239.728 120.82 241.754 120.636C241.028 121.182 238.122 122.091 235.217 122.091C238.304 123.181 244.007 124.81 247.565 121.545Z" fill="#B3301E"/>
<path d="M230.445 108.621C235.53 107.227 246.389 106.439 249.149 114.437C246.425 111.529 243.52 107.348 230.445 108.621Z" fill="#CC4124"/>
<path d="M216.1 108.806C218.641 111.54 224.088 116.983 230.446 114.255C224.998 114.074 222.274 113.169 216.1 108.806Z" fill="#CC4124"/>
<path d="M216.332 105.729C223.959 111.91 228.718 107.625 229.588 110.092C230.934 113.91 218.874 110.638 216.332 105.729Z" fill="#CC4124"/>
<path d="M213.063 105.911C214.698 110.395 221.744 118.927 234.672 118.636C229.043 118.144 218.148 114.455 213.063 105.911Z" fill="#CC4124"/>
<path d="M224.685 117.495C228.634 120.17 239.337 122.952 249.644 115.133C244.794 118.036 233.806 121.437 224.685 117.495Z" fill="#CC4124"/>
<path d="M227.923 148.941C227.955 149.847 228.302 151.938 228.845 152.913C229.287 153.707 229.522 154.452 230.276 154.899C230.678 155.138 231.228 155.293 232.036 155.325C232.667 155.351 233.379 155.205 234.102 154.966C236.042 154.326 238.07 153.017 238.882 152.531C239.996 151.864 242.38 150.449 243.372 149.752C244.365 149.056 244.815 148.501 244.941 146.578C245.949 147.03 246.642 147.417 247.575 148.214C249.147 149.558 250.297 151.038 251.273 152.133C247.291 154.957 238.753 160.864 236.456 161.901C236.147 162.06 236.058 161.922 235.857 161.287C235.696 160.78 234.62 156.862 234.102 154.966C233.379 155.205 232.667 155.351 232.036 155.325C231.228 155.293 230.678 155.138 230.276 154.899C229.005 156.154 226.358 158.754 225.934 159.12C225.405 159.578 225.25 159.657 224.806 158.964C224.362 158.271 221.918 152.574 221.844 150.214C222.682 149.597 224.496 149.048 227.923 148.941Z" fill="#FEF9F5"/>
<path d="M236.456 161.901C238.752 160.864 247.291 154.957 251.273 152.134C247.134 155.622 238.542 162.781 237.279 163.506C235.701 164.413 234.776 161.846 233.5 156.969C232.119 157.22 231.005 157.019 229.961 156.581C228.341 158.063 226.776 159.793 226.158 160.112C225.54 160.431 223.995 161.228 222.836 158.136C221.909 155.663 221.727 151.474 221.845 150.214C221.919 152.574 224.362 158.271 224.806 158.965C225.251 159.658 225.405 159.578 225.934 159.12C226.358 158.754 229.005 156.154 230.276 154.9C230.678 155.139 231.228 155.293 232.036 155.326C232.667 155.351 233.378 155.205 234.102 154.967C234.62 156.862 235.697 160.78 235.857 161.288C236.058 161.922 236.147 162.061 236.456 161.901Z" fill="#67C5C7"/>
<path fill-rule="evenodd" clip-rule="evenodd" d="M111.395 65.1715H59.0306C58.0248 65.1715 57.2093 65.9878 57.2093 66.9947V100.27C57.2093 101.277 58.0248 102.093 59.0306 102.093H111.395C112.401 102.093 113.216 101.277 113.216 100.27V66.9947C113.216 65.9878 112.401 65.1715 111.395 65.1715ZM59.0306 64.2598C57.5218 64.2598 56.2986 65.4842 56.2986 66.9947V100.27C56.2986 101.78 57.5218 103.005 59.0306 103.005H111.395C112.904 103.005 114.127 101.78 114.127 100.27V66.9947C114.127 65.4842 112.904 64.2598 111.395 64.2598H59.0306Z" fill="#4CA6A8"/>
<path d="M62.6733 89.7862C62.6733 89.2827 63.0811 88.8745 63.5839 88.8745H65.8607C66.3637 88.8745 66.7714 89.2827 66.7714 89.7862V96.1677C66.7714 96.6712 66.3637 97.0794 65.8607 97.0794H63.5839C63.0811 97.0794 62.6733 96.6712 62.6733 96.1677V89.7862Z" fill="#4CA6A8"/>
<path d="M70.8694 84.316C70.8694 83.8125 71.2771 83.4043 71.7801 83.4043H74.0568C74.5598 83.4043 74.9675 83.8125 74.9675 84.316V96.1674C74.9675 96.6708 74.5598 97.079 74.0568 97.079H71.7801C71.2771 97.079 70.8694 96.6708 70.8694 96.1674V84.316Z" fill="#4CA6A8"/>
<path d="M79.0659 86.5948C79.0659 86.0913 79.4736 85.6831 79.9766 85.6831H82.2533C82.7563 85.6831 83.164 86.0913 83.164 86.5948V96.1672C83.164 96.6706 82.7563 97.0787 82.2533 97.0787H79.9766C79.4736 97.0787 79.0659 96.6706 79.0659 96.1672V86.5948Z" fill="#4CA6A8"/>
<path d="M87.262 75.6553C87.262 75.1518 87.6697 74.7437 88.1725 74.7437H90.4493C90.9523 74.7437 91.3601 75.1518 91.3601 75.6553V96.1674C91.3601 96.6709 90.9523 97.079 90.4493 97.079H88.1725C87.6697 97.079 87.262 96.6709 87.262 96.1674V75.6553Z" fill="#4CA6A8"/>
<path d="M95.458 79.7579C95.458 79.2543 95.8657 78.8462 96.3687 78.8462H98.6454C99.1484 78.8462 99.5561 79.2543 99.5561 79.7579V96.1676C99.5561 96.6711 99.1484 97.0793 98.6454 97.0793H96.3687C95.8657 97.0793 95.458 96.6711 95.458 96.1676V79.7579Z" fill="#4CA6A8"/>
<path d="M103.654 70.6412C103.654 70.1376 104.062 69.7295 104.565 69.7295H106.841C107.344 69.7295 107.752 70.1376 107.752 70.6412V96.1673C107.752 96.6708 107.344 97.079 106.841 97.079H104.565C104.062 97.079 103.654 96.6708 103.654 96.1673V70.6412Z" fill="#4CA6A8"/>
<path d="M175.552 42.3603L188.104 35.6289V50.438L175.552 57.6184V42.3603Z" fill="#4CA6A8"/>
<path d="M175.552 42.3603L163 35.6289V50.438L175.552 57.6184V42.3603Z" fill="#73D2D5"/>
<path d="M163 35.629L175.552 42.3604L188.104 35.629L175.552 28L163 35.629Z" fill="#67C5C7"/>
</g>
<defs>
<linearGradient id="paint0_linear_28_17" x1="258.587" y1="203.648" x2="238.897" y2="182.248" gradientUnits="userSpaceOnUse">
<stop stop-color="#3ADCCD"/>
<stop offset="1" stop-color="#3ADCCD" stop-opacity="0"/>
</linearGradient>
<clipPath id="clip0_28_17">
<rect width="472" height="378" fill="white" transform="translate(-49)"/>
</clipPath>
</defs>
</svg>
