<svg width="50" height="50" viewBox="0 0 50 50" fill="none" xmlns="http://www.w3.org/2000/svg">
<rect width="50" height="50" rx="15" fill="#E6FFEF"/>
<g clip-path="url(#clip0_28_279)">
<path d="M24.9999 10C16.7159 10 10 16.7157 10 24.9998C10 33.2847 16.7159 40 24.9999 40C33.2843 40 40 33.2847 40 24.9998C40 16.7157 33.2843 10 24.9999 10Z" fill="#1ED760"/>
<path d="M31.5494 31.3089C31.2839 31.7443 30.717 31.8807 30.2832 31.6153C26.814 29.495 22.4473 29.0162 17.3046 30.1908C16.8091 30.3043 16.3151 29.9938 16.2022 29.4985C16.0886 29.0029 16.398 28.509 16.8946 28.3958C22.5224 27.1094 27.3497 27.663 31.2438 30.0425C31.678 30.3077 31.8147 30.8749 31.5494 31.3089Z" fill="white"/>
<path d="M33.3571 27.2865C33.023 27.8286 32.3141 27.9986 31.7726 27.6658C27.8025 25.2253 21.7482 24.5183 17.0511 25.9441C16.4421 26.1281 15.7987 25.7848 15.6136 25.1766C15.4301 24.5676 15.7736 23.9255 16.3817 23.7403C21.7475 22.1119 28.4181 22.9005 32.9781 25.7029C33.5196 26.0363 33.69 26.7455 33.3571 27.2865Z" fill="white"/>
<path d="M33.513 23.0974C28.7508 20.2692 20.8956 20.0092 16.3495 21.389C15.6193 21.6105 14.8473 21.1984 14.6262 20.4684C14.405 19.7378 14.8166 18.9663 15.5471 18.7445C20.7659 17.1604 29.4412 17.4663 34.9235 20.7207C35.5804 21.1106 35.7955 21.9586 35.4064 22.6142C35.0169 23.2708 34.1681 23.4873 33.513 23.0974Z" fill="white"/>
</g>
<defs>
<clipPath id="clip0_28_279">
<rect width="30" height="30" fill="white" transform="translate(10 10)"/>
</clipPath>
</defs>
</svg>
